# xmcd
#
# Track frame offsets: 
#        182
#        17122
#        30185
#        49440
#        62082
#        78555
#        91745
#        105735
#        122090
#        134857
#
# Disc length: 2020 seconds
#
# Revision: 2
# Processed by: cddbd v1.5.1PL0 Copyright (c) Steve Scherf et al.
# Submitted via: ExactAudioCopy v0.95a5
#
DISCID=8407e20a
DTITLE=Joy Lynn White - The Lucky Few
DYEAR=1997
DGENRE=Country
TTITLE0=Too Big For This Town
TTITLE1=Try Not To Be So Lonely
TTITLE2=Why Do I Love You
TTITLE3=I Doubt If It Does To You
TTITLE4=It's About Me
TTITLE5=I Just Wanted To See You So Bad
TTITLE6=It's Better This Way (duet with Dwight Yoakam)
TTITLE7=The Lucky Few
TTITLE8=Life's Just Too Short
TTITLE9=I Lost It
EXTD=
EXTT0=
EXTT1=
EXTT2=
EXTT3=
EXTT4=
EXTT5=
EXTT6=
EXTT7=
EXTT8=
EXTT9=
PLAYORDER=
